# xmcd
#
# Track frame offsets: 
#        150
#        10396
#        23622
#        36981
#        47315
#        65078
#        84646
#        96893
#        113228
#        129901
#        146023
#        157346
#
# Disc length: 2431 seconds
#
# Revision: 5
# Processed by: cddbd v1.5.2PL0 Copyright (c) Steve Scherf et al.
# Submitted via: ExactAudioCopy v0.99pb5
#
DISCID=9f097d0c
DTITLE=Ryan Adams and the Cardinals - Cardinology
DYEAR=2008
DGENRE=Alt. Country
TTITLE0=Born into a Light
TTITLE1=Go Easy
TTITLE2=Fix It
TTITLE3=Magick
TTITLE4=Cobwebs
TTITLE5=Let Us Down Easy
TTITLE6=Crossed Out Name
TTITLE7=Natural Ghost
TTITLE8=Sink Ships
TTITLE9=Evergreen
TTITLE10=Like Yesterday
TTITLE11=Stop
EXTD=
EXTT0=
EXTT1=
EXTT2=
EXTT3=
EXTT4=
EXTT5=
EXTT6=
EXTT7=
EXTT8=
EXTT9=
EXTT10=
EXTT11=
PLAYORDER=
